<?xml version="1.0" encoding="utf-8"?>
<!-- Generator: Adobe Illustrator 19.0.0, SVG Export Plug-In . SVG Version: 6.00 Build 0)  -->
<svg version="1.1" id="图层_1" xmlns="http://www.w3.org/2000/svg" xmlns:xlink="http://www.w3.org/1999/xlink" x="0px" y="0px"
	 viewBox="-289 381 32 32" style="enable-background:new -289 381 32 32;" xml:space="preserve">
<style type="text/css">
	.st0{fill:#1296DB;}
</style>
<path class="st0" d="M-263.4,394.7c-5.3,0-10.6,0-15.8,0c-0.5,0-0.9,0.2-1.1,0.6c-0.1,0.2-0.1,0.3-0.1,0.5c0,1.5,0,3,0,4.5l0,0
	c2.3,0.6,3.6,2.1,3.5,4.6c-0.1,1.7-1.5,3.2-3.5,3.6c0,0.1,0,0.1,0,0.2c0,0.6,0,1.3,0,1.9c0,0.8,0.5,1.4,1.3,1.3c5.2,0,10.5,0,15.7,0
	c0.1,0,0.2,0,0.3,0c0.6,0,1-0.5,1-1c0-0.1,0-0.2,0-0.2c0-4.9,0-9.8,0-14.7c0-0.4-0.1-0.8-0.4-1c-0.2-0.1-0.4-0.2-0.6-0.2
	C-263.2,394.7-263.3,394.7-263.4,394.7z M-273.6,382c-1.9,0-3.8,0-5.7,0c-0.6,0-1.1,0.3-1.2,0.9c0,0.2,0,0.4,0,0.7
	c0,0.2,0,0.5,0,0.7c2.3,0.4,3.5,2.3,3.5,4c0,1-0.3,1.9-1,2.7c-0.7,0.8-1.5,1.2-2.5,1.4c0,0.5,0.4,1.1,1,1.1c0.1,0,0.2,0,0.2,0
	c3.8,0,7.5,0,11.3,0c0.6,0,1.1-0.3,1.2-0.9c0-0.1,0-0.3,0-0.4c0-1.7,0-3.3,0-4.9c0-0.6-0.2-1-0.6-1.4c-0.7-0.6-1.4-1.1-2.2-1.7
	c-0.6-0.4-1.1-0.9-1.7-1.3C-272,382.4-272.8,382.1-273.6,382C-273.4,382-273.5,382-273.6,382z M-273.6,383.9h0.1
	c0.2,0.1,0.5,0.2,0.7,0.3c1.2,0.8,2.3,1.7,3.5,2.5c0.2,0.2,0.3,0.4,0.3,0.7c0,0.8,0,1.6,0,2.4c0,0.1,0,0.1,0,0.2c-1.6,0-3.1,0-4.6,0
	C-273.6,388-273.6,386-273.6,383.9z M-281.1,401.8c-1.5,0-2.7,1.2-2.7,2.7s1.2,2.7,2.7,2.7s2.7-1.2,2.6-2.7
	C-278.4,403-279.6,401.8-281.1,401.8z M-281.1,385.7c-1.5,0-2.6,1.2-2.6,2.7s1.2,2.7,2.7,2.7s2.7-1.2,2.6-2.7
	C-278.4,386.8-279.6,385.7-281.1,385.7z"/>
</svg>
